# xmcd CD database file
# Copyright (C) 1993-1998 Ti Kan
#
# Track frame offsets:
#	182
#	20595
#	37772
#	58657
#	75717
#	95730
#	113785
#	136045
#	157372
#	179125
#
# Disc length: 2601 seconds
#
# Revision: 2
# Processed by: cddbd v1.4b41PL1 Copyright (c) Steve Scherf et al.
# Submitted via: NotifyCDPlayer(CDDB) 1.51.3
#
DISCID=850a270a
DTITLE=Ron David Moore - Shape of Your Heart
DYEAR=1900
DGENRE=
TTITLE0=The Shape of Your Heart
TTITLE1=What Then?
TTITLE2=I Don't Live There Anymore
TTITLE3=You Ain't Living
TTITLE4=No Time like The Present
TTITLE5=Ira Jones
TTITLE6=Smooth Sailing
TTITLE7=Your Love Always Carries Me On
TTITLE8=Come Alive
TTITLE9=All Of The Above
EXTD=
EXTT0=
EXTT1=
EXTT2=
EXTT3=
EXTT4=
EXTT5=
EXTT6=
EXTT7=
EXTT8=
EXTT9=
PLAYORDER=
